<svg id="Capa_1" enable-background="new 0 0 510 510" height="512" viewBox="0 0 510 510" width="512" xmlns="http://www.w3.org/2000/svg"><g id="XMLID_443_"><path id="XMLID_1348_" d="m510 258.842h-262.512l202.716-132.238v55.447c0 5.773-4.697 10.471-10.471 10.471-5.773 0-10.471-4.697-10.471-10.471v-11.054h-30v11.054c0 22.315 18.155 40.471 40.471 40.471s40.471-18.155 40.471-40.471v-110.835l-268.165 174.932v-151.344h-84.466v51.583h-19.632c-19.922 0-37.45 14.13-41.678 33.598l-13.549 62.385-33.112 32.765v74.965h-19.602v30h110.119c4.732 33.13 33.28 58.685 67.697 58.685s62.965-25.556 67.697-58.685h81.643c4.732 33.13 33.28 58.685 67.697 58.685s62.964-25.556 67.697-58.685h47.45zm-352.427-134.038h24.466v21.583h-24.466zm-61.993 61.547c1.254-5.774 6.453-9.964 12.361-9.964h74.098v58.515h-97.003zm16.908 163.748h-62.886v-18.897h26.438v-30h-26.438v-13.548l22.993-22.752h109.444v37.229c-1.398-.086-2.804-.143-4.224-.143-30.654-.001-56.663 20.27-65.327 48.111zm65.327 58.685c-21.173 0-38.398-17.226-38.398-38.399s17.226-38.398 38.398-38.398c21.173 0 38.399 17.226 38.399 38.398 0 21.174-17.225 38.399-38.399 38.399zm217.038 0c-21.173 0-38.398-17.226-38.398-38.399s17.226-38.398 38.398-38.398 38.398 17.226 38.398 38.398c0 21.174-17.226 38.399-38.398 38.399zm85.147-58.685h-19.82c-8.664-27.841-34.672-48.112-65.327-48.112s-56.663 20.271-65.327 48.112h-86.383c-5.141-16.521-16.4-30.361-31.104-38.896v-22.36h267.961z"/><path id="XMLID_1354_" d="m177.816 354.959c-7.846 0-15.363 6.899-15 15 .364 8.127 6.591 15 15 15 7.846 0 15.363-6.899 15-15-.364-8.127-6.591-15-15-15z"/><path id="XMLID_1355_" d="m394.852 354.959c-7.846 0-15.363 6.899-15 15 .364 8.127 6.591 15 15 15 7.846 0 15.363-6.899 15-15-.364-8.127-6.59-15-15-15z"/></g></svg>